HIERARCHY
ROOT hip
{
  OFFSET 0 0 0
  CHANNELS 6 Xposition Yposition Zposition Zrotation Yrotation Xrotation
  JOINT abdomen
  {
    OFFSET 0 20.6881 -0.73152
    CHANNELS 3 Zrotation Xrotation Yrotation
    JOINT chest
    {
      OFFSET 0 11.7043 -0.48768
      CHANNELS 3 Zrotation Xrotation Yrotation
      JOINT neck
      {
        OFFSET 0 22.1894 -2.19456
        CHANNELS 3 Zrotation Xrotation Yrotation
        JOINT head
        {
          OFFSET -0.24384 7.07133 1.2192
          CHANNELS 3 Zrotation Xrotation Yrotation
          JOINT leftEye
          {
            OFFSET 4.14528 8.04674 8.04672
            CHANNELS 3 Zrotation Xrotation Yrotation
            End Site
            {
              OFFSET 1 0 0
            }
          }
          JOINT rightEye
          {
            OFFSET -3.6576 8.04674 8.04672
            CHANNELS 3 Zrotation Xrotation Yrotation
            End Site
            {
              OFFSET 1 0 0
            }
          }
        }
      }
      JOINT rCollar
      {
        OFFSET -2.68224 19.2634 -4.8768
        CHANNELS 3 Zrotation Xrotation Yrotation
        JOINT rShldr
        {
          OFFSET -8.77824 -1.95073 1.46304
          CHANNELS 3 Zrotation Xrotation Yrotation
          JOINT rForeArm
          {
            OFFSET -28.1742 -1.7115 0.48768
            CHANNELS 3 Zrotation Xrotation Yrotation
            JOINT rHand
            {
              OFFSET -22.5879 0.773209 7.07136
              CHANNELS 3 Zrotation Xrotation Yrotation
              JOINT rThumb1
              {
                OFFSET -1.2192 -0.487915 3.41376
                CHANNELS 3 Zrotation Xrotation Yrotation
                JOINT rThumb2
                {
                  OFFSET -3.37035 -0.52449 3.41376
                  CHANNELS 3 Zrotation Xrotation Yrotation
                  End Site
                  {
                    OFFSET -1.78271 -1.18214 1.43049
                  }
                }
              }
              JOINT rIndex1
              {
                OFFSET -7.75947 0.938293 5.60832
                CHANNELS 3 Zrotation Xrotation Yrotation
                JOINT rIndex2
                {
                  OFFSET -2.54057 -0.884171 1.56538
                  CHANNELS 3 Zrotation Xrotation Yrotation
                  End Site
                  {
                    OFFSET -1.62519 -0.234802 1.16502
                  }
                }
              }
              JOINT rMid1
              {
                OFFSET -8.24714 1.18213 3.41376
                CHANNELS 3 Zrotation Xrotation Yrotation
                JOINT rMid2
                {
                  OFFSET -3.10165 -0.590103 1.0647
                  CHANNELS 3 Zrotation Xrotation Yrotation
                  End Site
                  {
                    OFFSET -2.48547 -0.328903 0.83742
                  }
                }
              }
              JOINT rRing1
              {
                OFFSET -8.82822 0.546677 1.51678
                CHANNELS 3 Zrotation Xrotation Yrotation
                JOINT rRing2
                {
                  OFFSET -2.60934 -0.819778 -0.0198488
                  CHANNELS 3 Zrotation Xrotation Yrotation
                  End Site
                  {
                    OFFSET -2.33842 -0.294052 0.168128
                  }
                }
              }
              JOINT rPinky1
              {
                OFFSET -8.27202 -0.0477905 -0.4584
                CHANNELS 3 Zrotation Xrotation Yrotation
                JOINT rPinky2
                {
                  OFFSET -1.82734 -0.647385 -0.700984
                  CHANNELS 3 Zrotation Xrotation Yrotation
                  End Site
                  {
                    OFFSET -1.69225 -0.51767 -0.607171
                  }
                }
              }
            }
          }
        }
      }
      JOINT lCollar
      {
        OFFSET 2.68224 19.2634 -4.8768
        CHANNELS 3 Zrotation Xrotation Yrotation
        JOINT lShldr
        {
          OFFSET 8.77824 -1.95073 1.46304
          CHANNELS 3 Zrotation Xrotation Yrotation
          JOINT lForeArm
          {
            OFFSET 28.1742 -1.7115 0.48768
            CHANNELS 3 Zrotation Xrotation Yrotation
            JOINT lHand
            {
              OFFSET 22.5879 0.773209 7.07136
              CHANNELS 3 Zrotation Xrotation Yrotation
              JOINT lThumb1
              {
                OFFSET 1.2192 -0.487915 3.41376
                CHANNELS 3 Zrotation Xrotation Yrotation
                JOINT lThumb2
                {
                  OFFSET 3.37035 -0.52449 3.41376
                  CHANNELS 3 Zrotation Xrotation Yrotation
                  End Site
                  {
                    OFFSET 1.78271 -1.18214 1.43049
                  }
                }
              }
              JOINT lIndex1
              {
                OFFSET 7.75947 0.938293 5.60832
                CHANNELS 3 Zrotation Xrotation Yrotation
                JOINT lIndex2
                {
                  OFFSET 2.54057 -0.884171 1.56538
                  CHANNELS 3 Zrotation Xrotation Yrotation
                  End Site
                  {
                    OFFSET 1.62519 -0.234802 1.16502
                  }
                }
              }
              JOINT lMid1
              {
                OFFSET 8.24714 1.18213 3.41376
                CHANNELS 3 Zrotation Xrotation Yrotation
                JOINT lMid2
                {
                  OFFSET 3.10165 -0.590103 1.0647
                  CHANNELS 3 Zrotation Xrotation Yrotation
                  End Site
                  {
                    OFFSET 2.48547 -0.328903 0.83742
                  }
                }
              }
              JOINT lRing1
              {
                OFFSET 8.82822 0.546677 1.51678
                CHANNELS 3 Zrotation Xrotation Yrotation
                JOINT lRing2
                {
                  OFFSET 2.60934 -0.819778 -0.0198488
                  CHANNELS 3 Zrotation Xrotation Yrotation
                  End Site
                  {
                    OFFSET 2.33842 -0.294052 0.168128
                  }
                }
              }
              JOINT lPinky1
              {
                OFFSET 8.27202 -0.0477905 -0.4584
                CHANNELS 3 Zrotation Xrotation Yrotation
                JOINT lPinky2
                {
                  OFFSET 1.82734 -0.647385 -0.700984
                  CHANNELS 3 Zrotation Xrotation Yrotation
                  End Site
                  {
                    OFFSET 1.69225 -0.51767 -0.607171
                  }
                }
              }
            }
          }
        }
      }
    }
  }
  JOINT rButtock
  {
    OFFSET -8.77824 4.35084 1.2192
    CHANNELS 3 Zrotation Xrotation Yrotation
    JOINT rThigh
    {
      OFFSET 0 -1.70687 -2.19456
      CHANNELS 3 Zrotation Xrotation Yrotation
      JOINT rShin
      {
        OFFSET 0 -36.8199 0.73152
        CHANNELS 3 Zrotation Xrotation Yrotation
        JOINT rFoot
        {
          OFFSET 0.73152 -45.1104 -5.12064
          CHANNELS 3 Zrotation Xrotation Yrotation
          End Site
          {
            OFFSET -1.1221 -3.69964 12.103
          }
        }
      }
    }
  }
  JOINT lButtock
  {
    OFFSET 8.77824 4.35084 1.2192
    CHANNELS 3 Zrotation Xrotation Yrotation
    JOINT lThigh
    {
      OFFSET 0 -1.70687 -2.19456
      CHANNELS 3 Zrotation Xrotation Yrotation
      JOINT lShin
      {
        OFFSET 0 -36.8199 0.73152
        CHANNELS 3 Zrotation Xrotation Yrotation
        JOINT lFoot
        {
          OFFSET -0.73152 -45.1104 -5.12064
          CHANNELS 3 Zrotation Xrotation Yrotation
          End Site
          {
            OFFSET 1.1221 -3.69964 12.103
          }
        }
      }
    }
  }
}
MOTION
Frames:	4
Frame Time:	0.03333
-7.30340324528804 57.22784645159738 -38.43187347399247 -18.01591682434082 -44.90879821777344 11.138346672058105 3.2755720615386963 14.470609664916992 16.342529296875 -2.8208491802215576 -11.422758102416992 4.519177436828613 -0.8422998189926147 11.606886863708496 8.532952308654785 7.06549596786499 -22.398439407348633 18.03276824951172 -0.05327298492193222 0.34018656611442566 -0.08877825736999512 0.29739364981651306 0.06527166813611984 -0.37506791949272156 0.43665340542793274 0.19385093450546265 -0.07294252514839172 41.05254364013672 75.21095275878906 27.893943786621094 -26.897598266601562 -44.91802978515625 93.33133697509766 -31.023855209350586 -77.47176361083984 -38.863094329833984 -0.17118124663829803 0.1494305580854416 -0.25857794284820557 0.2123812884092331 0.1466127634048462 0.07109980285167694 -0.5826471447944641 0.32731857895851135 -0.4372696578502655 7.684579849243164 5.697381973266602 0.28967350721359253 -0.26422467827796936 0.47383636236190796 -0.10387226194143295 3.2024052143096924 0.9789998531341553 -0.05072519928216934 -0.17239950597286224 0.043764274567365646 0.5235292911529541 10.322887420654297 0.3972717225551605 0.21780388057231903 0.5853671431541443 0.05943970009684563 0.21034596860408783 2.0818240642547607 -0.6897549629211426 -0.363031804561615 0.011091959662735462 -0.3687780201435089 -0.32279878854751587 -61.08009338378906 14.396601676940918 -29.8857479095459 28.11501693725586 -36.811283111572266 -77.18172454833984 0.020403943955898285 15.452922821044922 -2.1902341842651367 -0.12702777981758118 -0.20465166866779327 -0.45873603224754333 -0.17161518335342407 -0.1800197958946228 -0.2210642695426941 -0.1485367864370346 0.23406270146369934 0.14166498184204102 -7.945466041564941 5.676522731781006 -0.47264498472213745 -0.1597905457019806 0.403201699256897 -0.46938738226890564 -2.831263542175293 0.4515540301799774 -0.29364028573036194 -0.08352291584014893 0.35261476039886475 -0.5562001466751099 -10.389726638793945 0.7292513251304626 0.0695548802614212 -0.17844323813915253 0.26450827717781067 -0.419831782579422 -1.9619476795196533 -0.3795989155769348 0.2798079550266266 0.22739675641059875 0.07911079376935959 -0.3629031479358673 -16.264802932739258 -17.478437423706055 -24.15878677368164 -0.9255031943321228 62.752750396728516 3.20276141166687 -6.914091110229492 -17.285371780395508 -23.39891815185547 0.24351784586906433 -0.49650678038597107 -0.1446644812822342 67.09713745117188 -49.42841720581055 56.74148941040039 1.6189711093902588 68.76643371582031 -1.4313360452651978 -1.5719895362854004 9.107622146606445 5.925117492675781
-7.562688325239126 56.83831393304238 -38.95337752030828 -18.273292541503906 -45.16572570800781 11.891901016235352 3.519794225692749 14.608835220336914 15.859984397888184 -2.677234649658203 -11.543648719787598 4.421236038208008 -1.0431971549987793 11.832788467407227 8.391246795654297 7.278947353363037 -22.613161087036133 18.154541015625 -0.11318062990903854 0.35452520847320557 -0.11290854215621948 0.3092237114906311 0.014691593125462532 -0.4498760402202606 0.5413088798522949 0.17892767488956451 -0.008382382802665234 38.99784851074219 76.16914367675781 29.669408798217773 -27.075077056884766 -44.94165802001953 93.18455505371094 -26.71681022644043 -76.0449447631836 -34.246177673339844 -0.12149596214294434 0.14673908054828644 -0.19518305361270905 0.22394602000713348 0.0986097902059555 0.11880145221948624 -0.587689995765686 0.3734031021595001 -0.35279709100723267 7.781818866729736 5.739259719848633 0.27308544516563416 -0.2823021709918976 0.3887217342853546 -0.20548172295093536 3.133732557296753 0.8968654870986938 0.04594631493091583 -0.11630904674530029 0.11537108570337296 0.4901938736438751 10.270822525024414 0.4890596568584442 0.2286217361688614 0.5715709328651428 0.08107123523950577 0.23954297602176666 2.2262747287750244 -0.7073261737823486 -0.4198250472545624 0.01087778527289629 -0.43864893913269043 -0.3637678921222687 -60.67512512207031 15.031174659729004 -30.41923713684082 28.092388153076172 -36.80289840698242 -77.20327758789062 0.20849956572055817 17.107818603515625 -2.430793285369873 -0.16054034233093262 -0.1586410105228424 -0.4465036690235138 -0.006447809748351574 -0.1520029902458191 -0.13193394243717194 -0.1411999613046646 0.12335331737995148 0.0964713841676712 -7.9280314445495605 5.550034046173096 -0.4550032913684845 -0.09927081316709518 0.4571456015110016 -0.500424861907959 -2.8376693725585938 0.5384244322776794 -0.3366503119468689 -0.12025709450244904 0.28254836797714233 -0.4274897575378418 -10.34936237335205 0.8062244057655334 0.20593924820423126 -0.14610165357589722 0.2575331926345825 -0.40233173966407776 -1.9650212526321411 -0.4056464433670044 0.22289836406707764 0.32504189014434814 -0.10855386406183243 -0.258137971162796 -16.7252197265625 -18.535411834716797 -24.90009307861328 -1.1331793069839478 64.60399627685547 3.4250237941741943 -7.699222564697266 -18.264677047729492 -24.17244529724121 0.30627650022506714 -0.4681653380393982 -0.0786249041557312 67.61968994140625 -49.61659622192383 57.926204681396484 2.171800374984741 70.42700958251953 -1.8433525562286377 -1.2270628213882446 7.253307342529297 4.257197380065918
-7.733189056829684 56.567486687167616 -39.37796918642954 -18.345991134643555 -45.37223815917969 12.691976547241211 3.6988418102264404 14.653816223144531 15.366376876831055 -2.540133237838745 -11.63476848602295 4.326869964599609 -1.154691219329834 12.10782527923584 8.329832077026367 7.459686279296875 -22.70584487915039 18.282054901123047 -0.1515694111585617 0.3237682282924652 -0.07396192848682404 0.3319772481918335 0.017920980229973793 -0.45154041051864624 0.6481159329414368 0.15559452772140503 0.042998507618904114 37.01072692871094 76.92626953125 31.495586395263672 -27.196704864501953 -44.94913864135742 93.17414093017578 -24.269878387451172 -74.98599243164062 -31.571151733398438 -0.08825156092643738 0.09661033004522324 -0.12483885139226913 0.20029377937316895 0.044323258101940155 0.15605886280536652 -0.5366082787513733 0.3879154324531555 -0.2715030014514923 7.902669906616211 5.751028060913086 0.25219571590423584 -0.30102962255477905 0.3204629719257355 -0.2851446270942688 3.0781970024108887 0.8695155382156372 0.13034288585186005 -0.050073690712451935 0.13184905052185059 0.4487762749195099 10.24770450592041 0.5759408473968506 0.2132384032011032 0.5404391288757324 0.059837065637111664 0.2595857083797455 2.3569626808166504 -0.7126888632774353 -0.4633764624595642 -0.00684148957952857 -0.456931471824646 -0.35888853669166565 -60.40324783325195 15.428220748901367 -31.24005126953125 28.095685958862305 -36.72675704956055 -77.20435333251953 0.3188052475452423 18.123804092407227 -2.5794997215270996 -0.14142832159996033 -0.14151889085769653 -0.40577468276023865 0.11990515142679214 -0.15916557610034943 -0.065796859562397 -0.14358985424041748 0.009502227418124676 0.09428784996271133 -7.90603494644165 5.445279121398926 -0.44534456729888916 -0.04651051014661789 0.4264785647392273 -0.5119283199310303 -2.8664767742156982 0.6498641967773438 -0.3326161205768585 -0.1586855798959732 0.22899417579174042 -0.3280274569988251 -10.314563751220703 0.8384302258491516 0.303095281124115 -0.1260230392217636 0.2237187772989273 -0.35986343026161194 -1.9872788190841675 -0.43509164452552795 0.18855851888656616 0.36586135625839233 -0.27055907249450684 -0.13598594069480896 -17.364770889282227 -19.374095916748047 -25.57916831970215 -1.305275797843933 66.20047760009766 3.6328253746032715 -8.259912490844727 -19.02621841430664 -24.577606201171875 0.2990904748439789 -0.44220051169395447 -0.04590287432074547 68.17478942871094 -49.47320556640625 59.08252716064453 2.63649582862854 71.6818618774414 -2.238649606704712 -0.9253589510917664 5.732929706573486 3.222965717315674
-7.826977265809186 56.34848008652575 -39.711478572421385 -18.28933334350586 -45.684085845947266 13.485774993896484 3.8097500801086426 14.639880180358887 14.925284385681152 -2.4377002716064453 -11.70568561553955 4.2473931312561035 -1.1982126235961914 12.378715515136719 8.355843544006348 7.608399391174316 -22.73017120361328 18.449888229370117 -0.17479954659938812 0.27133509516716003 -0.0028655484784394503 0.350837767124176 0.051990117877721786 -0.40282922983169556 0.7236185073852539 0.13270123302936554 0.0700785219669342 35.35844039916992 77.46569061279297 33.040435791015625 -27.25419807434082 -44.97172164916992 93.2878646850586 -23.33544921875 -74.44385528564453 -30.481836318969727 -0.07317988574504852 0.02060011774301529 -0.05785829946398735 0.15803112089633942 -0.00265939487144351 0.175537571310997 -0.4562603533267975 0.37785905599594116 -0.2024427205324173 8.010948181152344 5.74178409576416 0.22745992243289948 -0.3046191334724426 0.2705867290496826 -0.32374605536460876 3.034519910812378 0.8919948935508728 0.19724369049072266 0.005728427786380053 0.10571224242448807 0.40377357602119446 10.238899230957031 0.6548822522163391 0.18288269639015198 0.4906168282032013 0.02232172340154648 0.27335914969444275 2.4497601985931396 -0.7049756646156311 -0.4895535409450531 -0.03230125829577446 -0.43575894832611084 -0.3138481676578522 -60.377994537353516 15.522976875305176 -32.07592010498047 28.135334014892578 -36.59740447998047 -77.12165069580078 0.36447006464004517 18.706892013549805 -2.6801586151123047 -0.0969189777970314 -0.1398484855890274 -0.3484746217727661 0.22119134664535522 -0.17955568432807922 -0.03519392013549805 -0.13682220876216888 -0.08422752469778061 0.11848519742488861 -7.882978916168213 5.376000881195068 -0.4445434808731079 -0.0011157443514093757 0.3432632088661194 -0.5153265595436096 -2.902540922164917 0.7503286004066467 -0.3123093545436859 -0.1790454387664795 0.1947350949048996 -0.25299742817878723 -10.284134864807129 0.8290296196937561 0.357255756855011 -0.12315485626459122 0.17293308675289154 -0.3150368928909302 -2.0236408710479736 -0.4548420011997223 0.1849835067987442 0.3824397027492523 -0.3843986988067627 -0.02159770019352436 -18.08856773376465 -20.065898895263672 -26.22022819519043 -1.4395005702972412 67.54084777832031 3.8183364868164062 -8.664458274841309 -19.64958953857422 -24.721044540405273 0.2491031140089035 -0.42086103558540344 -0.03534339740872383 68.74755859375 -49.07002639770508 60.245323181152344 3.033308267593384 72.66942596435547 -2.623807907104492 -0.6621129512786865 4.534241676330566 2.623239517211914
